# xmcd CD database file
#
# Track frame offsets:
#	150
#	25234
#	44318
#	72786
#	95780
#	125788
#	148588
#	168408
#	190832
#	201162
#
# Disc length: 2945 seconds
#
# Revision: 0
# Processed by: cddbd v1.5.2PL0 Copyright (c) Steve Scherf et al.
# Submitted via: CDex 1.70beta2
#
DISCID=930b7f0a
DTITLE=吉田兄弟 - FRONTIER
DYEAR=2003
DGENRE=New Age
TTITLE0=FRONTIER
TTITLE1=ありがとう
TTITLE2=津軽じょんがら節 (吉田健一)
TTITLE3=疾風
TTITLE4=彩雲
TTITLE5=陽炎
TTITLE6=津軽じょんがら節 (吉田良一郎)
TTITLE7=夕なぎ
TTITLE8=OLD/NEW ~モダン第3章~
TTITLE9=荒城の月
EXTD=YEAR: 2003
EXTT0=
EXTT1=
EXTT2=
EXTT3=
EXTT4=
EXTT5=
EXTT6=
EXTT7=
EXTT8=
EXTT9=
PLAYORDER=
